<?xml version="1.0" encoding="UTF-8"?>
<svg id="Capa_1" data-name="Capa 1" xmlns="http://www.w3.org/2000/svg" viewBox="0 0 16 15">
  <defs>
    <style>
      .cls-1 {
        fill: #dc2626;
      }
    </style>
  </defs>
  <path class="cls-1" d="M8,2.75l-.72-.74C5.6.28,2.51.88,1.4,3.05c-.48.94-.62,2.27.11,3.95H.43C-1.7,1.3,4.6-1.83,7.82,1.14c.06.06.12.11.18.17.06-.06.12-.12.18-.17,3.23-2.97,9.52.16,7.39,5.86h-1.08c.73-1.68.59-3.01.11-3.95-1.11-2.17-4.2-2.77-5.88-1.04l-.72.74ZM2.21,10h1.32c1.07,1.18,2.52,2.46,4.47,3.8,1.95-1.34,3.41-2.61,4.47-3.8h1.32c-1.27,1.57-3.14,3.25-5.79,5-2.65-1.75-4.52-3.43-5.79-5"/>
  <path class="cls-1" d="M10.46,3.31c-.1-.26-.39-.38-.65-.28-.14.06-.25.18-.29.33l-1.6,5.59-1.46-3.64c-.1-.26-.39-.38-.65-.28-.09.04-.17.1-.23.19l-1.85,2.78H.5C.22,8,0,8.22,0,8.5s.22.5.5.5h3.5c.17,0,.32-.08.42-.22l1.47-2.21,1.65,4.12c.1.26.39.38.65.28.14-.06.25-.18.29-.33l1.6-5.59,1.46,3.64c.08.19.26.31.46.31h3.5c.28,0,.5-.22.5-.5s-.22-.5-.5-.5h-3.16l-1.87-4.69Z"/>
</svg>