<?xml version="1.0" encoding="UTF-8"?>
<svg id="Vertical" xmlns="http://www.w3.org/2000/svg" viewBox="0 0 160 160">
  <defs>
    <style>
      .cls-1 {
        fill: #009fe3;
      }

      .cls-2 {
        fill: #6d6e70;
      }
    </style>
  </defs>
  <rect class="cls-1" x="20.59" y="103.58" width="123.79" height="4.71" rx="2.35" ry="2.35"/>
  <g>
    <polygon class="cls-2" points="28.87 42.39 28.87 101.84 40.03 101.84 40.03 75.51 65.66 75.51 65.66 101.84 76.82 101.84 76.82 42.39 65.83 42.39 65.83 65.4 40.38 65.4 40.38 42.39 28.87 42.39"/>
    <path class="cls-2" d="M81.18,42.39v9.24h32.08s9.07.35,9.07,6.97-.17,8.37-7.85,8.72h-9.94v10.5h5.4s7.5.84,9.94,9.73l4.55,14.3h11.66s-6.41-23.71-11.66-26.5c0,0,9.57-4.01,9.74-16.21,0,0-.25-9.93-9.86-14.71-2.74-1.36-5.78-2.03-8.84-2.03h-34.31Z"/>
    <polygon class="cls-2" points="82.75 55.43 94.58 55.43 88.66 52.56 82.75 55.43"/>
    <rect class="cls-2" x="79.93" y="56.61" width="17.91" height="2.62"/>
    <path class="cls-2" d="M79.93,60.27h17.91v18.7l-6.57,3.57c-.54.3-.88.87-.88,1.49l.12,16.25s-.11.92-1.38.97-1.22-.99-1.22-.99l-.06-16.33c0-.5-.28-.96-.72-1.19l-7.21-3.81v-18.67Z"/>
  </g>
  <g>
    <path class="cls-2" d="M28.85,111.89v2.07h1.86v-2.07h1.54v5.71h-1.54v-2.25h-1.86v2.25h-1.54v-5.71h1.54Z"/>
    <path class="cls-2" d="M36.86,117.12c-.38.4-.92.6-1.62.6s-1.21-.19-1.59-.58c-.38-.39-.57-.93-.57-1.63s.19-1.26.58-1.65c.39-.39.92-.59,1.61-.59s1.21.19,1.59.58c.38.39.57.93.57,1.63s-.19,1.25-.58,1.64ZM34.74,116.32c.12.17.3.25.52.25s.4-.08.52-.25.19-.44.19-.82-.06-.66-.19-.82c-.12-.17-.3-.25-.52-.25s-.4.08-.52.25c-.12.17-.19.44-.19.82s.06.66.19.82Z"/>
    <path class="cls-2" d="M39.54,116.59c.12.06.27.09.45.09s.32-.03.4-.08c.08-.05.12-.14.12-.25,0-.09-.03-.15-.08-.21s-.16-.09-.32-.12l-.49-.08c-.54-.09-.94-.24-1.2-.45s-.38-.5-.38-.86c0-.45.16-.79.49-1.02.33-.23.79-.35,1.39-.35.34,0,.62.03.86.1s.43.16.58.28c.15.12.27.26.35.41.08.15.14.31.17.48l-1.33.14c-.03-.14-.09-.25-.18-.32-.09-.07-.23-.11-.43-.11-.19,0-.32.03-.4.09-.08.06-.12.14-.12.23,0,.09.03.15.1.2.07.05.19.09.38.12l.48.09c.3.05.55.12.75.2.2.08.36.17.48.28s.21.23.26.37c.05.14.08.3.08.48,0,.47-.16.82-.47,1.06-.31.24-.79.36-1.44.36-.26,0-.5-.02-.74-.07-.24-.05-.46-.12-.64-.24-.19-.11-.34-.26-.46-.45-.12-.19-.19-.43-.2-.72h1.37c.03.17.11.28.22.34Z"/>
    <path class="cls-2" d="M43.95,113.86c.29-.4.7-.6,1.22-.6s.95.19,1.24.57.44.91.44,1.6c0,.36-.04.69-.12.97-.08.29-.2.52-.36.72-.15.19-.34.34-.56.44-.22.1-.46.15-.72.15-.47,0-.84-.17-1.1-.5v1.93h-1.45v-5.76h1.41v.47ZM44.04,116.02c.03.13.07.23.12.3.06.09.14.15.24.19.09.03.19.05.28.05.22,0,.4-.08.52-.25.12-.17.19-.44.19-.82s-.06-.64-.18-.81c-.12-.17-.3-.25-.52-.25-.1,0-.2.02-.29.06-.09.04-.17.11-.24.21-.11.16-.17.4-.17.73v.12c0,.19.01.35.04.48Z"/>
    <path class="cls-2" d="M49.07,112.93h-1.46v-1.05h1.46v1.05ZM49.06,117.6h-1.45v-4.2h1.45v4.2Z"/>
    <path class="cls-2" d="M49.62,114.53v-1.13h.67v-1.1h1.45v1.1h.91v1.13h-.91v1.5c0,.19.04.32.13.39.09.07.2.1.35.1.12,0,.26-.02.4-.05l.18,1.06c-.33.1-.66.15-.99.15-.55,0-.94-.13-1.17-.38-.23-.26-.35-.66-.35-1.2v-1.56h-.67Z"/>
    <path class="cls-2" d="M55.85,117.14c-.17.18-.36.32-.56.42-.2.1-.44.15-.72.15-.19,0-.37-.02-.54-.07-.17-.05-.32-.12-.45-.23-.13-.1-.24-.23-.31-.39s-.12-.35-.12-.57c0-.26.05-.47.16-.64.1-.17.25-.31.43-.42.18-.11.39-.19.64-.24.25-.05.51-.08.79-.1l.63-.03v-.17c0-.21-.05-.35-.15-.43-.1-.08-.23-.12-.38-.12-.33,0-.52.14-.57.42l-1.3-.1c.08-.45.27-.78.6-1,.33-.22.77-.33,1.34-.33.35,0,.65.04.88.12s.43.2.57.35c.14.15.25.33.31.54.06.21.1.45.1.71v2.61h-1.35v-.46ZM55.34,115.84c-.3.02-.51.07-.62.15s-.16.2-.16.34.04.24.12.3c.08.06.2.09.35.09.22,0,.41-.06.56-.19.15-.13.22-.31.22-.56v-.14l-.46.02Z"/>
    <path class="cls-2" d="M59.49,117.6h-1.45v-5.71h1.45v5.71Z"/>
    <path class="cls-2" d="M62.18,111.89h2.25c.95,0,1.67.24,2.16.71.49.47.73,1.17.73,2.08s-.26,1.66-.77,2.16c-.51.5-1.25.76-2.2.76h-2.16v-5.71ZM64.37,116.3c.47,0,.81-.14,1.03-.41s.33-.66.33-1.16-.1-.88-.3-1.15c-.2-.26-.53-.4-.98-.4h-.73v3.12h.65Z"/>
    <path class="cls-2" d="M72.49,114.65c-.14.27-.35.5-.64.67l1.17,2.28h-1.62l-.94-1.97h-.83v1.97h-1.46v-5.71h2.25c.44,0,.81.05,1.1.15.29.1.53.24.7.4.17.17.29.36.37.58.07.22.11.44.11.67,0,.36-.07.68-.21.96ZM70.38,114.44c.31,0,.53-.06.65-.18.12-.12.19-.29.19-.52s-.07-.38-.2-.5c-.13-.12-.36-.18-.69-.18h-.7v1.37h.75Z"/>
    <path class="cls-2" d="M75.01,116.07v1.53h-1.39v-1.53h1.39Z"/>
    <path class="cls-2" d="M81.96,114.65c-.14.27-.35.5-.64.67l1.17,2.28h-1.62l-.94-1.97h-.83v1.97h-1.46v-5.71h2.25c.44,0,.81.05,1.1.15.29.1.53.24.7.4.17.17.29.36.37.58.07.22.11.44.11.67,0,.36-.07.68-.21.96ZM79.85,114.44c.31,0,.53-.06.65-.18.12-.12.19-.29.19-.52s-.07-.38-.2-.5c-.13-.12-.36-.18-.69-.18h-.7v1.37h.75Z"/>
    <path class="cls-2" d="M85.45,117.14c-.17.18-.36.32-.56.42-.2.1-.44.15-.72.15-.19,0-.37-.02-.54-.07-.17-.05-.32-.12-.45-.23-.13-.1-.24-.23-.31-.39s-.12-.35-.12-.57c0-.26.05-.47.16-.64.1-.17.25-.31.43-.42.18-.11.39-.19.64-.24.25-.05.51-.08.79-.1l.63-.03v-.17c0-.21-.05-.35-.15-.43-.1-.08-.23-.12-.38-.12-.33,0-.52.14-.57.42l-1.3-.1c.08-.45.27-.78.6-1,.33-.22.77-.33,1.34-.33.35,0,.65.04.88.12s.43.2.57.35c.14.15.25.33.31.54.06.21.1.45.1.71v2.61h-1.35v-.46ZM84.93,115.84c-.3.02-.51.07-.62.15s-.16.2-.16.34.04.24.12.3c.08.06.2.09.35.09.22,0,.41-.06.56-.19.15-.13.22-.31.22-.56v-.14l-.46.02Z"/>
    <path class="cls-2" d="M90.19,117.1c-.17.22-.35.38-.56.48-.21.1-.44.14-.69.14-.43,0-.76-.13-.99-.39-.23-.26-.35-.64-.35-1.13v-2.81h1.45v2.57c0,.22.04.37.12.44.08.08.19.12.34.12.18,0,.34-.06.46-.18.05-.06.1-.13.13-.2.03-.07.05-.18.05-.32v-2.43h1.45v4.2h-1.41v-.5ZM88.66,112.91l1-1.32h1.62l-1.29,1.32h-1.33Z"/>
    <path class="cls-2" d="M93.93,117.6h-1.45v-5.71h1.45v5.71Z"/>
    <path class="cls-2" d="M98.15,111.89v2.07h1.86v-2.07h1.54v5.71h-1.54v-2.25h-1.86v2.25h-1.54v-5.71h1.54Z"/>
    <path class="cls-2" d="M103.78,115.84c.03.3.09.52.2.65.11.13.28.2.52.2.36,0,.58-.15.66-.44h1.35c-.08.5-.3.87-.64,1.11-.34.25-.79.37-1.36.37-.7,0-1.23-.19-1.59-.56s-.54-.91-.54-1.6c0-.37.05-.69.15-.98s.24-.52.43-.72c.18-.19.41-.34.67-.44.26-.1.56-.15.89-.15s.62.05.87.15c.25.1.46.24.63.42s.3.41.38.67.13.55.13.87v.46h-2.77ZM103.99,114.49c-.12.13-.19.3-.21.53h1.43c-.01-.26-.07-.44-.18-.55-.11-.11-.28-.17-.5-.17-.25,0-.43.06-.54.19Z"/>
    <path class="cls-2" d="M108.69,113.4v.51c.15-.2.32-.35.51-.44.19-.09.41-.14.66-.14.15,0,.29.01.41.04l-.16,1.24c-.06-.02-.13-.03-.21-.04s-.16-.01-.24-.01c-.12,0-.23.01-.35.04s-.22.07-.31.13c-.1.07-.17.17-.21.28-.05.11-.07.26-.07.44v2.15h-1.45v-4.2h1.41Z"/>
    <path class="cls-2" d="M112.24,113.89c.17-.22.36-.38.57-.48.21-.1.44-.14.7-.14.43,0,.77.13,1,.38.24.25.36.63.36,1.14v2.81h-1.45v-2.57c0-.22-.04-.37-.12-.44-.08-.08-.2-.12-.35-.12-.19,0-.35.06-.48.18-.06.06-.11.12-.14.2-.03.07-.05.18-.05.32v2.43h-1.45v-4.2h1.41v.5Z"/>
    <path class="cls-2" d="M118.17,117.14c-.17.18-.36.32-.56.42-.2.1-.44.15-.72.15-.19,0-.37-.02-.54-.07-.17-.05-.32-.12-.45-.23-.13-.1-.24-.23-.31-.39s-.12-.35-.12-.57c0-.26.05-.47.16-.64.1-.17.25-.31.43-.42.18-.11.39-.19.64-.24.25-.05.51-.08.79-.1l.63-.03v-.17c0-.21-.05-.35-.15-.43-.1-.08-.23-.12-.38-.12-.33,0-.52.14-.57.42l-1.3-.1c.08-.45.27-.78.6-1,.33-.22.77-.33,1.34-.33.35,0,.65.04.88.12s.43.2.57.35c.14.15.25.33.31.54.06.21.1.45.1.71v2.61h-1.35v-.46ZM116.72,112.91l1-1.32h1.62l-1.29,1.32h-1.33ZM117.66,115.84c-.3.02-.51.07-.62.15s-.16.2-.16.34.04.24.12.3c.08.06.2.09.35.09.22,0,.41-.06.56-.19.15-.13.22-.31.22-.56v-.14l-.46.02Z"/>
    <path class="cls-2" d="M121.77,113.89c.17-.22.36-.38.57-.48.21-.1.44-.14.7-.14.43,0,.77.13,1,.38.24.25.36.63.36,1.14v2.81h-1.45v-2.57c0-.22-.04-.37-.12-.44-.08-.08-.2-.12-.35-.12-.19,0-.35.06-.48.18-.06.06-.11.12-.14.2-.03.07-.05.18-.05.32v2.43h-1.45v-4.2h1.41v.5Z"/>
    <path class="cls-2" d="M128.03,117.12c-.3.4-.71.6-1.22.6s-.95-.19-1.24-.57c-.29-.38-.44-.91-.44-1.6,0-.36.04-.69.12-.97.08-.29.2-.52.36-.72.15-.19.34-.34.56-.44.22-.1.46-.15.72-.15.47,0,.84.17,1.1.5v-1.88h1.45v5.71h-1.41v-.47ZM127.95,114.97c-.03-.13-.07-.23-.12-.3-.06-.09-.14-.15-.24-.19-.09-.03-.19-.05-.28-.05-.21,0-.39.08-.52.24-.13.16-.2.44-.2.83s.06.66.19.82.3.24.51.24c.1,0,.2-.02.29-.06.09-.04.17-.11.24-.21.11-.16.17-.4.17-.73v-.12c0-.19-.01-.35-.04-.48Z"/>
    <path class="cls-2" d="M131.57,115.84c.03.3.09.52.2.65.11.13.28.2.52.2.36,0,.58-.15.66-.44h1.35c-.08.5-.3.87-.64,1.11-.34.25-.79.37-1.36.37-.7,0-1.23-.19-1.59-.56s-.54-.91-.54-1.6c0-.37.05-.69.15-.98s.24-.52.43-.72c.18-.19.41-.34.67-.44.26-.1.56-.15.89-.15s.62.05.87.15c.25.1.46.24.63.42s.3.41.38.67.13.55.13.87v.46h-2.77ZM131.77,114.49c-.12.13-.19.3-.21.53h1.43c-.01-.26-.07-.44-.18-.55-.11-.11-.28-.17-.5-.17-.25,0-.43.06-.54.19Z"/>
    <path class="cls-2" d="M138.6,116.49l-.12,1.1h-3.61v-.92l1.85-2.17h-1.81v-1.1h3.6v.92l-1.85,2.17h1.94Z"/>
  </g>
</svg>