<?xml version="1.0" encoding="UTF-8"?>
<svg id="Horizontal" xmlns="http://www.w3.org/2000/svg" viewBox="0 0 350 75">
  <defs>
    <style>
      .cls-1 {
        fill: none;
      }

      .cls-2 {
        fill: #36a9e1;
      }

      .cls-3 {
        fill: #6d6e70;
      }
    </style>
  </defs>
  <g>
    <g>
      <path class="cls-3" d="M163.93,33.87v-9.46h1.67v3.91h4.32v-3.91h1.67v9.46h-1.67v-4.12h-4.32v4.12h-1.67Z"/>
      <path class="cls-3" d="M176.41,34.02c-.68,0-1.27-.15-1.77-.46-.5-.31-.88-.73-1.16-1.28-.27-.55-.41-1.19-.41-1.91s.14-1.38.41-1.93c.27-.55.66-.98,1.16-1.29.5-.3,1.09-.46,1.77-.46s1.27.15,1.77.46c.5.3.89.73,1.16,1.29.27.55.41,1.2.41,1.93s-.14,1.37-.41,1.91c-.27.55-.66.98-1.16,1.28-.5.31-1.09.46-1.77.46ZM176.41,32.68c.38,0,.69-.1.95-.31s.44-.49.56-.84c.12-.35.18-.74.18-1.17s-.06-.83-.18-1.18c-.12-.35-.31-.63-.56-.84s-.57-.31-.95-.31-.69.1-.94.31c-.25.21-.43.49-.56.83-.12.35-.18.74-.18,1.18s.06.82.18,1.17c.12.35.31.63.56.84.25.21.56.31.94.31Z"/>
      <path class="cls-3" d="M183.8,34.02c-.54,0-1.01-.08-1.42-.23-.41-.16-.75-.39-1.01-.69-.26-.3-.44-.66-.51-1.09l1.52-.29c.1.35.27.61.51.78.24.17.56.26.96.26s.72-.08.95-.24c.24-.16.35-.37.35-.61,0-.2-.08-.37-.23-.5-.15-.13-.39-.24-.71-.31l-1.19-.26c-.66-.14-1.15-.38-1.47-.71s-.49-.76-.49-1.28c0-.44.12-.82.36-1.14.24-.32.57-.57.99-.75.42-.18.91-.27,1.47-.27.53,0,.98.08,1.36.23.38.15.69.37.92.64.24.27.4.59.49.96l-1.45.29c-.08-.25-.22-.46-.43-.63-.21-.17-.5-.26-.88-.26-.34,0-.63.08-.86.23-.23.15-.35.35-.35.59,0,.21.08.38.23.51s.41.24.76.32l1.19.25c.66.14,1.15.37,1.47.69s.48.73.48,1.23c0,.45-.13.84-.38,1.18-.25.34-.61.61-1.06.8-.45.19-.97.29-1.56.29Z"/>
      <path class="cls-3" d="M188.18,36.52v-9.75h1.58v1.17h.11c.08-.17.2-.35.36-.55.15-.19.36-.36.63-.5.26-.14.6-.21,1.01-.21.54,0,1.03.14,1.46.42s.78.69,1.03,1.23c.26.54.38,1.21.38,2s-.12,1.44-.38,1.99c-.25.55-.59.96-1.03,1.25-.43.29-.93.43-1.48.43-.4,0-.73-.07-.99-.21-.27-.14-.48-.3-.64-.5s-.28-.38-.36-.55h-.07v3.78h-1.62ZM191.43,32.64c.36,0,.67-.1.91-.3.25-.2.43-.48.56-.83.12-.35.19-.74.19-1.18s-.06-.83-.18-1.18c-.12-.34-.31-.62-.55-.81-.25-.2-.55-.29-.92-.29s-.66.1-.9.29-.43.46-.56.8c-.13.34-.19.74-.19,1.2s.06.87.19,1.21.31.62.56.81c.25.19.55.29.9.29Z"/>
      <path class="cls-3" d="M196.97,25.77c-.26,0-.48-.09-.66-.27-.19-.18-.28-.39-.28-.63s.09-.47.28-.64c.18-.18.41-.26.66-.26s.49.09.67.26c.19.18.28.39.28.64s-.09.46-.28.64c-.18.18-.41.27-.67.27ZM196.16,33.87v-7.1h1.62v7.1h-1.62Z"/>
      <path class="cls-3" d="M202.73,26.77v1.29h-3.96v-1.29h3.96ZM199.76,25.08h1.62v6.79c0,.26.05.45.16.57.11.12.29.18.53.18.08,0,.17,0,.3-.03.12-.02.22-.04.3-.05l.26,1.28c-.18.06-.36.09-.55.12-.19.02-.37.03-.54.03-.67,0-1.18-.17-1.54-.51-.36-.34-.54-.82-.54-1.45v-6.93Z"/>
      <path class="cls-3" d="M206.02,34.02c-.44,0-.84-.08-1.19-.24-.35-.16-.63-.4-.84-.72-.2-.32-.31-.71-.31-1.17,0-.4.07-.73.22-1,.15-.26.35-.47.6-.63s.54-.27.85-.36.64-.14.99-.17c.4-.05.73-.09.99-.12s.44-.09.56-.17.18-.19.18-.36v-.03c0-.23-.05-.43-.14-.59-.09-.16-.23-.29-.41-.38-.18-.09-.4-.13-.67-.13s-.5.04-.7.13c-.2.08-.36.19-.48.33s-.22.28-.27.44l-1.5-.31c.14-.42.35-.76.64-1.04.29-.27.63-.48,1.03-.61s.83-.2,1.29-.2c.33,0,.66.04,1,.12.33.08.64.21.92.4.28.19.5.44.67.75.17.31.26.71.26,1.18v4.74h-1.55v-.98h-.06c-.1.2-.25.38-.43.56-.18.17-.41.31-.67.41-.27.1-.59.16-.95.16ZM206.44,32.79c.34,0,.63-.07.87-.2s.43-.31.57-.54c.14-.22.2-.46.2-.73v-.84c-.05.04-.14.08-.27.12s-.27.07-.42.1c-.16.03-.31.06-.46.08-.15.02-.28.04-.38.05-.24.03-.46.09-.66.17s-.35.18-.46.32c-.11.14-.17.32-.17.54,0,.2.05.37.15.51.1.14.24.24.42.31s.38.11.61.11Z"/>
      <path class="cls-3" d="M213.04,24.41v9.46h-1.62v-9.46h1.62Z"/>
    </g>
    <g>
      <rect class="cls-1" x="162.99" y="42.57" width="126.84" height="9.7"/>
      <path class="cls-3" d="M165.64,42.57v9.46h-1.69v-9.46h1.69ZM167.14,52.03h-2.39v-1.47h2.31c.66,0,1.21-.12,1.65-.36.44-.24.78-.61,1-1.09.22-.48.34-1.09.34-1.82s-.11-1.32-.34-1.8c-.22-.48-.55-.84-.99-1.09s-.97-.36-1.62-.36h-2.41v-1.47h2.51c.94,0,1.75.19,2.42.56.67.38,1.19.92,1.55,1.62.36.71.54,1.55.54,2.53s-.18,1.83-.54,2.54c-.36.71-.88,1.25-1.57,1.63-.68.38-1.5.57-2.47.57Z"/>
      <path class="cls-3" d="M173.33,52.03v-9.46h3.54c.72,0,1.33.13,1.83.38.49.25.87.61,1.12,1.06.25.45.38.98.38,1.58s-.13,1.12-.38,1.57-.63.79-1.13,1.03c-.5.24-1.11.36-1.84.36h-2.53v-1.4h2.3c.43,0,.78-.06,1.05-.18.27-.12.47-.3.6-.53s.2-.51.2-.84-.07-.63-.2-.87c-.13-.24-.33-.42-.61-.55-.27-.13-.62-.19-1.06-.19h-1.58v8.04h-1.69ZM178.65,52.03l-2.3-4.29h1.85l2.34,4.29h-1.9Z"/>
      <path class="cls-3" d="M182.93,52.14c-.28,0-.52-.1-.72-.29-.2-.19-.29-.43-.29-.72s.1-.53.29-.72c.2-.19.44-.29.72-.29s.53.1.73.29c.2.19.3.44.3.72s-.1.52-.3.72c-.2.19-.44.29-.73.29Z"/>
      <path class="cls-3" d="M188.97,52.03v-9.46h3.54c.72,0,1.33.13,1.83.38.49.25.87.61,1.12,1.06.25.45.38.98.38,1.58s-.13,1.12-.38,1.57-.63.79-1.13,1.03c-.5.24-1.11.36-1.84.36h-2.53v-1.4h2.3c.43,0,.78-.06,1.05-.18.27-.12.47-.3.6-.53s.2-.51.2-.84-.07-.63-.2-.87c-.13-.24-.33-.42-.61-.55-.27-.13-.62-.19-1.06-.19h-1.58v8.04h-1.69ZM194.29,52.03l-2.3-4.29h1.85l2.34,4.29h-1.9Z"/>
      <path class="cls-3" d="M199.29,52.17c-.45,0-.85-.08-1.21-.24-.36-.16-.64-.4-.85-.72-.21-.32-.31-.71-.31-1.17,0-.4.08-.73.23-1s.35-.47.61-.63.54-.27.87-.36.66-.14,1-.17c.41-.05.75-.09,1-.12s.45-.09.57-.17c.12-.08.18-.19.18-.36v-.03c0-.23-.05-.43-.14-.59-.09-.16-.23-.29-.42-.38-.18-.09-.41-.13-.68-.13s-.51.04-.71.13-.37.19-.49.33-.22.28-.28.44l-1.53-.31c.14-.42.36-.76.65-1.04.29-.27.64-.48,1.04-.61s.84-.2,1.32-.2c.33,0,.67.04,1.01.12.34.08.65.21.94.4.28.19.51.44.69.75.17.31.26.71.26,1.18v4.74h-1.58v-.98h-.06c-.11.2-.25.38-.44.56-.18.17-.41.31-.69.41-.27.1-.6.16-.97.16ZM199.71,50.95c.34,0,.64-.07.89-.2.25-.14.44-.31.58-.54.14-.22.21-.46.21-.73v-.84c-.05.04-.15.08-.28.12s-.27.07-.43.1c-.16.03-.32.06-.47.08s-.28.04-.39.05c-.25.03-.47.09-.67.17s-.35.18-.47.32c-.11.14-.17.32-.17.54,0,.2.05.37.16.51.1.14.25.24.43.31s.39.11.62.11Z"/>
      <path class="cls-3" d="M207.2,52.12c-.49,0-.91-.1-1.28-.31s-.65-.51-.85-.91c-.2-.4-.3-.88-.3-1.45v-4.51h1.65v4.26c0,.47.12.85.37,1.12.25.27.59.41,1.02.41.29,0,.55-.06.78-.19s.41-.31.54-.56.19-.54.19-.88v-4.16h1.66v7.1h-1.57l-.02-1.75h.13c-.2.62-.49,1.08-.88,1.38-.39.3-.87.46-1.44.46ZM207.25,44.02l.88-1.94h1.6l-1.28,1.94h-1.2Z"/>
      <path class="cls-3" d="M214.38,42.57v9.46h-1.65v-9.46h1.65Z"/>
      <path class="cls-3" d="M219.49,52.03v-9.46h1.69v3.91h4.4v-3.91h1.69v9.46h-1.69v-4.12h-4.4v4.12h-1.69Z"/>
      <path class="cls-3" d="M232.24,52.17c-.71,0-1.33-.15-1.84-.45-.51-.3-.91-.72-1.19-1.27s-.42-1.19-.42-1.93.14-1.37.41-1.92c.27-.55.66-.98,1.16-1.29.5-.31,1.09-.47,1.77-.47.43,0,.84.07,1.23.21s.74.36,1.04.65.54.66.71,1.11c.17.45.26.99.26,1.61v.52h-5.8v-1.12h4.98l-.77.33c0-.4-.06-.75-.18-1.05-.12-.3-.31-.54-.55-.71s-.55-.25-.91-.25-.67.09-.93.26c-.25.17-.45.4-.58.69-.13.29-.2.6-.2.96v.77c0,.45.08.83.23,1.14s.37.54.64.7.59.23.96.23c.24,0,.46-.03.66-.1.2-.07.37-.17.51-.31.14-.14.25-.31.32-.5l1.52.31c-.11.38-.31.71-.58,1-.27.29-.62.51-1.03.67-.41.16-.88.24-1.41.24Z"/>
      <path class="cls-3" d="M236.79,52.03v-7.1h1.6v1.19h.08c.13-.41.35-.73.67-.95.32-.22.68-.33,1.08-.33.09,0,.2,0,.31.01.11,0,.21.02.29.03v1.52c-.07-.02-.18-.04-.33-.06s-.3-.03-.45-.03c-.3,0-.58.07-.82.2s-.43.31-.57.54c-.14.23-.21.5-.21.8v4.18h-1.65Z"/>
      <path class="cls-3" d="M243.73,47.87v4.16h-1.65v-7.1h1.56l.03,1.75h-.13c.2-.61.49-1.07.88-1.38.39-.31.87-.46,1.45-.46.49,0,.91.1,1.28.31s.65.51.85.91.3.88.3,1.45v4.51h-1.65v-4.26c0-.47-.12-.85-.37-1.12-.25-.27-.58-.41-1.02-.41-.29,0-.55.06-.78.19s-.41.31-.54.56c-.13.24-.2.54-.2.88Z"/>
      <path class="cls-3" d="M252.01,52.17c-.45,0-.85-.08-1.21-.24-.36-.16-.64-.4-.85-.72-.21-.32-.31-.71-.31-1.17,0-.4.08-.73.23-1s.35-.47.61-.63.54-.27.87-.36.66-.14,1-.17c.41-.05.75-.09,1-.12s.45-.09.57-.17c.12-.08.18-.19.18-.36v-.03c0-.23-.05-.43-.14-.59-.09-.16-.23-.29-.42-.38-.18-.09-.41-.13-.68-.13s-.51.04-.71.13-.37.19-.49.33-.22.28-.28.44l-1.53-.31c.14-.42.36-.76.65-1.04.29-.27.64-.48,1.04-.61s.84-.2,1.32-.2c.33,0,.67.04,1.01.12.34.08.65.21.94.4.28.19.51.44.69.75.17.31.26.71.26,1.18v4.74h-1.58v-.98h-.06c-.11.2-.25.38-.44.56-.18.17-.41.31-.69.41-.27.1-.6.16-.97.16ZM252.44,50.95c.34,0,.64-.07.89-.2.25-.14.44-.31.58-.54.14-.22.21-.46.21-.73v-.84c-.05.04-.15.08-.28.12s-.27.07-.43.1c-.16.03-.32.06-.47.08s-.28.04-.39.05c-.25.03-.47.09-.67.17s-.35.18-.47.32c-.11.14-.17.32-.17.54,0,.2.05.37.16.51.1.14.25.24.43.31s.39.11.62.11ZM252.2,44.02l.88-1.94h1.6l-1.28,1.94h-1.2Z"/>
      <path class="cls-3" d="M259.15,47.87v4.16h-1.65v-7.1h1.56l.03,1.75h-.13c.2-.61.49-1.07.88-1.38.39-.31.87-.46,1.45-.46.49,0,.91.1,1.28.31s.65.51.85.91.3.88.3,1.45v4.51h-1.65v-4.26c0-.47-.12-.85-.37-1.12-.25-.27-.58-.41-1.02-.41-.29,0-.55.06-.78.19s-.41.31-.54.56c-.13.24-.2.54-.2.88Z"/>
      <path class="cls-3" d="M268.06,52.15c-.56,0-1.06-.14-1.5-.43-.44-.29-.79-.7-1.04-1.25s-.38-1.21-.38-1.99.13-1.45.39-2c.26-.54.61-.96,1.05-1.23s.93-.42,1.48-.42c.42,0,.77.07,1.04.21.27.14.48.31.64.5.16.19.28.38.36.55h.07v-3.54h1.65v9.46h-1.62v-1.12h-.1c-.08.17-.21.35-.37.55s-.38.36-.64.5c-.27.14-.61.21-1.02.21ZM268.51,50.8c.36,0,.67-.1.91-.29.25-.19.44-.46.57-.81.13-.35.2-.75.2-1.21s-.06-.86-.19-1.2c-.13-.34-.32-.61-.57-.8s-.56-.29-.92-.29-.68.1-.93.29c-.25.2-.44.47-.57.81-.13.35-.19.74-.19,1.18s.06.83.19,1.18c.13.35.32.62.57.83.25.2.56.3.93.3Z"/>
      <path class="cls-3" d="M276.7,52.17c-.71,0-1.33-.15-1.84-.45-.51-.3-.91-.72-1.19-1.27s-.42-1.19-.42-1.93.14-1.37.41-1.92c.27-.55.66-.98,1.16-1.29.5-.31,1.09-.47,1.77-.47.43,0,.84.07,1.23.21s.74.36,1.04.65.54.66.71,1.11c.17.45.26.99.26,1.61v.52h-5.8v-1.12h4.98l-.77.33c0-.4-.06-.75-.18-1.05-.12-.3-.31-.54-.55-.71s-.55-.25-.91-.25-.67.09-.93.26c-.25.17-.45.4-.58.69-.13.29-.2.6-.2.96v.77c0,.45.08.83.23,1.14s.37.54.64.7.59.23.96.23c.24,0,.46-.03.66-.1.2-.07.37-.17.51-.31.14-.14.25-.31.32-.5l1.52.31c-.11.38-.31.71-.58,1-.27.29-.62.51-1.03.67-.41.16-.88.24-1.41.24Z"/>
      <path class="cls-3" d="M280.91,52.03v-1.05l3.66-4.61v-.06h-3.55v-1.38h5.57v1.14l-3.49,4.52v.06h3.61v1.38h-5.81Z"/>
    </g>
  </g>
  <rect class="cls-2" x="50.11" y="59.22" width="95.17" height="3.62" rx="1.81" ry="1.81"/>
  <polygon class="cls-3" points="56.27 12.17 56.27 57.87 64.85 57.87 64.85 37.63 84.56 37.63 84.56 57.87 93.14 57.87 93.14 12.17 84.69 12.17 84.69 29.86 65.12 29.86 65.12 12.17 56.27 12.17"/>
  <path class="cls-3" d="M96.49,12.17v7.1h24.66s6.97.27,6.97,5.36-.13,6.43-6.03,6.7h-7.64v8.07h4.16s5.76.64,7.64,7.48l3.5,10.99h8.96s-4.93-18.23-8.96-20.37c0,0,7.36-3.08,7.49-12.47,0,0-.19-7.63-7.58-11.31-2.11-1.05-4.44-1.56-6.79-1.56h-26.38Z"/>
  <polygon class="cls-3" points="97.69 22.2 106.79 22.2 102.24 19.99 97.69 22.2"/>
  <rect class="cls-3" x="95.53" y="23.1" width="13.77" height="2.01"/>
  <path class="cls-3" d="M95.53,25.92h13.77v14.38l-5.05,2.75c-.42.23-.68.67-.67,1.14l.09,12.5s-.08.7-1.06.75-.94-.76-.94-.76l-.04-12.56c0-.38-.21-.73-.55-.91l-5.54-2.93v-14.35Z"/>
</svg>