<?xml version="1.0" encoding="UTF-8"?>
<svg id="Vertical" xmlns="http://www.w3.org/2000/svg" viewBox="0 0 160 160">
  <defs>
    <style>
      .cls-1 {
        fill: #009fe3;
      }

      .cls-2 {
        fill: #6d6e70;
      }
    </style>
  </defs>
  <rect class="cls-1" x="20.59" y="103.58" width="123.79" height="4.71" rx="2.35" ry="2.35"/>
  <g>
    <polygon class="cls-2" points="28.87 42.39 28.87 101.84 40.03 101.84 40.03 75.51 65.66 75.51 65.66 101.84 76.82 101.84 76.82 42.39 65.83 42.39 65.83 65.4 40.38 65.4 40.38 42.39 28.87 42.39"/>
    <path class="cls-2" d="M81.18,42.39v9.24h32.08s9.07.35,9.07,6.97-.17,8.37-7.85,8.72h-9.94v10.5h5.4s7.5.84,9.94,9.73l4.55,14.3h11.66s-6.41-23.71-11.66-26.5c0,0,9.57-4.01,9.74-16.21,0,0-.25-9.93-9.86-14.71-2.74-1.36-5.78-2.03-8.84-2.03h-34.31Z"/>
    <polygon class="cls-2" points="82.75 55.43 94.58 55.43 88.66 52.56 82.75 55.43"/>
    <rect class="cls-2" x="79.93" y="56.61" width="17.91" height="2.62"/>
    <path class="cls-2" d="M79.93,60.27h17.91v18.7l-6.57,3.57c-.54.3-.88.87-.88,1.49l.12,16.25s-.11.92-1.38.97-1.22-.99-1.22-.99l-.06-16.33c0-.5-.28-.96-.72-1.19l-7.21-3.81v-18.67Z"/>
  </g>
  <g>
    <path class="cls-2" d="M27.37,117.6v-5.82h1.04v2.41h2.71v-2.41h1.04v5.82h-1.04v-2.54h-2.71v2.54h-1.04Z"/>
    <path class="cls-2" d="M35.18,117.69c-.42,0-.79-.09-1.11-.28s-.55-.45-.72-.79-.26-.73-.26-1.18.08-.85.26-1.19.41-.6.72-.79.68-.28,1.11-.28.8.09,1.11.28.55.45.72.79.26.74.26,1.19-.08.84-.26,1.18-.41.6-.72.79-.68.28-1.11.28ZM35.18,116.86c.24,0,.43-.06.59-.19s.27-.3.35-.52.12-.46.12-.72-.04-.51-.12-.73-.19-.39-.35-.52-.35-.19-.59-.19-.43.06-.59.19-.27.3-.35.51-.12.46-.12.73.04.51.12.72.19.39.35.52.35.19.59.19Z"/>
    <path class="cls-2" d="M39.81,117.69c-.34,0-.63-.05-.89-.14s-.47-.24-.63-.42-.27-.41-.32-.67l.95-.18c.06.22.17.38.32.48s.35.16.6.16.45-.05.6-.15.22-.22.22-.37c0-.12-.05-.23-.14-.31s-.25-.15-.45-.19l-.75-.16c-.41-.09-.72-.23-.92-.44s-.3-.46-.3-.79c0-.27.07-.51.22-.7s.35-.35.62-.46.57-.16.92-.16.62.05.85.14.43.22.58.39.25.37.31.59l-.91.18c-.05-.15-.14-.28-.27-.39s-.31-.16-.55-.16c-.22,0-.4.05-.54.14s-.22.22-.22.37c0,.13.05.23.14.32s.25.15.48.2l.74.16c.41.09.72.23.92.43s.3.45.3.75c0,.28-.08.52-.24.73s-.38.37-.66.49-.61.18-.97.18Z"/>
    <path class="cls-2" d="M42.55,119.23v-6h.99v.72h.07c.05-.1.13-.22.22-.34s.23-.22.39-.31.38-.13.63-.13c.34,0,.64.09.91.26s.49.43.65.76.24.74.24,1.23-.08.89-.23,1.22-.37.59-.64.77-.58.26-.93.26c-.25,0-.45-.04-.62-.13s-.3-.19-.4-.31-.17-.23-.23-.34h-.04v2.32h-1.02ZM44.58,116.84c.23,0,.42-.06.57-.19s.27-.29.35-.51.12-.46.12-.73-.04-.51-.12-.72-.19-.38-.35-.5-.34-.18-.57-.18-.41.06-.57.18-.27.28-.35.49-.12.46-.12.74.04.53.12.75.2.38.35.5.34.18.56.18Z"/>
    <path class="cls-2" d="M48.05,112.61c-.16,0-.3-.05-.42-.16s-.17-.24-.17-.39.06-.29.17-.4.25-.16.42-.16.3.05.42.16.17.24.17.39-.06.29-.17.39-.26.16-.42.16ZM47.55,117.6v-4.37h1.02v4.37h-1.02Z"/>
    <path class="cls-2" d="M51.66,113.23v.8h-2.48v-.8h2.48ZM49.8,112.19h1.02v4.18c0,.16.03.28.1.35s.18.11.33.11c.05,0,.11,0,.19-.02s.14-.02.19-.03l.16.79c-.11.03-.23.06-.34.07s-.23.02-.34.02c-.42,0-.74-.1-.96-.31s-.34-.51-.34-.89v-4.26Z"/>
    <path class="cls-2" d="M53.72,117.69c-.28,0-.52-.05-.75-.15s-.4-.25-.52-.44-.19-.44-.19-.72c0-.25.05-.45.14-.61s.22-.29.38-.39.33-.17.53-.22.4-.08.62-.11c.25-.03.46-.05.62-.07s.28-.05.35-.1.11-.12.11-.22v-.02c0-.14-.03-.27-.09-.37s-.14-.18-.26-.23-.25-.08-.42-.08-.32.03-.44.08-.22.12-.3.2-.14.17-.17.27l-.94-.19c.09-.26.22-.47.4-.64s.39-.29.64-.38.52-.12.81-.12c.21,0,.41.02.62.07s.4.13.58.24.32.27.42.46.16.44.16.73v2.92h-.97v-.6h-.04c-.07.12-.15.24-.27.34s-.25.19-.42.25-.37.1-.6.1ZM53.98,116.93c.21,0,.39-.04.54-.12s.27-.19.36-.33.13-.29.13-.45v-.52s-.09.05-.17.07-.17.04-.27.06-.19.03-.29.05-.17.02-.24.03c-.15.02-.29.05-.41.1s-.22.11-.29.2-.1.19-.1.33c0,.12.03.23.1.31s.15.15.26.19.24.07.38.07Z"/>
    <path class="cls-2" d="M58.11,111.78v5.82h-1.02v-5.82h1.02Z"/>
    <path class="cls-2" d="M62.3,111.78v5.82h-1.04v-5.82h1.04ZM63.22,117.6h-1.47v-.9h1.42c.41,0,.75-.07,1.02-.22s.48-.37.62-.67.21-.67.21-1.12-.07-.81-.21-1.11-.34-.52-.61-.67-.6-.22-1-.22h-1.48v-.9h1.54c.58,0,1.07.12,1.49.35s.73.56.96,1,.33.95.33,1.55-.11,1.13-.33,1.56-.54.77-.96,1-.93.35-1.52.35Z"/>
    <path class="cls-2" d="M67.03,117.6v-5.82h2.18c.45,0,.82.08,1.12.23s.54.37.69.65.23.6.23.97-.08.69-.24.96-.39.48-.7.63-.68.22-1.13.22h-1.55v-.86h1.42c.26,0,.48-.04.64-.11s.29-.18.37-.33.12-.32.12-.52-.04-.39-.12-.53-.21-.26-.37-.34-.38-.12-.65-.12h-.97v4.95h-1.04ZM70.3,117.6l-1.41-2.64h1.14l1.44,2.64h-1.17Z"/>
    <path class="cls-2" d="M72.94,117.66c-.17,0-.32-.06-.44-.18s-.18-.27-.18-.44.06-.33.18-.45.27-.18.44-.18.33.06.45.18.18.27.18.45-.06.32-.18.44-.27.18-.45.18Z"/>
    <path class="cls-2" d="M76.65,117.6v-5.82h2.18c.45,0,.82.08,1.12.23s.54.37.69.65.23.6.23.97-.08.69-.24.96-.39.48-.7.63-.68.22-1.13.22h-1.55v-.86h1.42c.26,0,.48-.04.64-.11s.29-.18.37-.33.12-.32.12-.52-.04-.39-.12-.53-.21-.26-.37-.34-.38-.12-.65-.12h-.97v4.95h-1.04ZM79.92,117.6l-1.41-2.64h1.14l1.44,2.64h-1.17Z"/>
    <path class="cls-2" d="M83,117.69c-.28,0-.52-.05-.75-.15s-.4-.25-.52-.44-.19-.44-.19-.72c0-.25.05-.45.14-.61s.22-.29.38-.39.33-.17.53-.22.4-.08.62-.11c.25-.03.46-.05.62-.07s.28-.05.35-.1.11-.12.11-.22v-.02c0-.14-.03-.27-.09-.37s-.14-.18-.26-.23-.25-.08-.42-.08-.32.03-.44.08-.22.12-.3.2-.14.17-.17.27l-.94-.19c.09-.26.22-.47.4-.64s.39-.29.64-.38.52-.12.81-.12c.21,0,.41.02.62.07s.4.13.58.24.32.27.42.46.16.44.16.73v2.92h-.97v-.6h-.04c-.07.12-.15.24-.27.34s-.25.19-.42.25-.37.1-.6.1ZM83.26,116.93c.21,0,.39-.04.54-.12s.27-.19.36-.33.13-.29.13-.45v-.52s-.09.05-.17.07-.17.04-.27.06-.19.03-.29.05-.17.02-.24.03c-.15.02-.29.05-.41.1s-.22.11-.29.2-.1.19-.1.33c0,.12.03.23.1.31s.15.15.26.19.24.07.38.07Z"/>
    <path class="cls-2" d="M87.87,117.65c-.3,0-.56-.06-.79-.19s-.4-.31-.52-.56-.19-.54-.19-.89v-2.78h1.02v2.62c0,.29.08.52.23.69s.36.25.63.25c.18,0,.34-.04.48-.12s.25-.19.33-.34.12-.33.12-.54v-2.56h1.02v4.37h-.96v-1.08s.07,0,.07,0c-.12.38-.3.66-.54.85s-.53.28-.88.28ZM87.9,112.67l.54-1.2h.98l-.79,1.2h-.74Z"/>
    <path class="cls-2" d="M92.29,111.78v5.82h-1.02v-5.82h1.02Z"/>
    <path class="cls-2" d="M95.43,117.6v-5.82h1.04v2.41h2.71v-2.41h1.04v5.82h-1.04v-2.54h-2.71v2.54h-1.04Z"/>
    <path class="cls-2" d="M103.28,117.69c-.44,0-.82-.09-1.13-.28s-.56-.45-.73-.78-.26-.73-.26-1.19.08-.85.25-1.18.41-.6.71-.79.67-.29,1.09-.29c.27,0,.52.04.76.13s.45.22.64.4.33.41.44.69.16.61.16.99v.32h-3.57v-.69h3.07l-.48.2c0-.24-.04-.46-.11-.65s-.19-.33-.34-.44-.34-.16-.56-.16-.41.05-.57.16-.28.25-.36.42-.12.37-.12.59v.48c0,.28.05.51.14.7s.23.33.39.43.37.14.59.14c.15,0,.28-.02.4-.06s.23-.11.31-.19.16-.19.2-.31l.93.19c-.07.23-.19.44-.36.62s-.38.31-.63.41-.54.15-.87.15Z"/>
    <path class="cls-2" d="M106.08,117.6v-4.37h.98v.73h.05c.08-.25.21-.45.41-.58s.42-.21.67-.21c.06,0,.12,0,.19,0s.13.01.18.02v.93s-.11-.02-.2-.04-.19-.02-.28-.02c-.19,0-.36.04-.51.12s-.27.19-.35.33-.13.31-.13.49v2.57h-1.02Z"/>
    <path class="cls-2" d="M110.35,115.04v2.56h-1.02v-4.37h.96l.02,1.08h-.08c.12-.38.3-.66.54-.85s.53-.28.89-.28c.3,0,.56.06.79.19s.4.31.52.56.19.54.19.89v2.78h-1.02v-2.62c0-.29-.08-.52-.23-.69s-.36-.25-.62-.25c-.18,0-.34.04-.48.12s-.25.19-.33.34-.12.33-.12.54Z"/>
    <path class="cls-2" d="M115.45,117.69c-.28,0-.52-.05-.75-.15s-.4-.25-.52-.44-.19-.44-.19-.72c0-.25.05-.45.14-.61s.22-.29.38-.39.33-.17.53-.22.4-.08.62-.11c.25-.03.46-.05.62-.07s.28-.05.35-.1.11-.12.11-.22v-.02c0-.14-.03-.27-.09-.37s-.14-.18-.26-.23-.25-.08-.42-.08-.32.03-.44.08-.22.12-.3.2-.14.17-.17.27l-.94-.19c.09-.26.22-.47.4-.64s.39-.29.64-.38.52-.12.81-.12c.21,0,.41.02.62.07s.4.13.58.24.32.27.42.46.16.44.16.73v2.92h-.97v-.6h-.04c-.07.12-.15.24-.27.34s-.25.19-.42.25-.37.1-.6.1ZM115.71,116.93c.21,0,.39-.04.54-.12s.27-.19.36-.33.13-.29.13-.45v-.52s-.09.05-.17.07-.17.04-.27.06-.19.03-.29.05-.17.02-.24.03c-.15.02-.29.05-.41.1s-.22.11-.29.2-.1.19-.1.33c0,.12.03.23.1.31s.15.15.26.19.24.07.38.07ZM115.57,112.67l.54-1.2h.98l-.79,1.2h-.74Z"/>
    <path class="cls-2" d="M119.84,115.04v2.56h-1.02v-4.37h.96l.02,1.08h-.08c.12-.38.3-.66.54-.85s.53-.28.89-.28c.3,0,.56.06.79.19s.4.31.52.56.19.54.19.89v2.78h-1.02v-2.62c0-.29-.08-.52-.23-.69s-.36-.25-.62-.25c-.18,0-.34.04-.48.12s-.25.19-.33.34-.12.33-.12.54Z"/>
    <path class="cls-2" d="M125.33,117.67c-.34,0-.65-.09-.92-.26s-.49-.43-.64-.77-.23-.74-.23-1.22.08-.89.24-1.23.38-.59.65-.76.58-.26.91-.26c.26,0,.47.04.64.13s.3.19.39.31.17.23.22.34h.04v-2.18h1.02v5.82h-1v-.69h-.06c-.05.1-.13.22-.23.34s-.23.22-.4.31-.37.13-.62.13ZM125.6,116.84c.22,0,.41-.06.56-.18s.27-.28.35-.5.12-.46.12-.75-.04-.53-.12-.74-.2-.37-.35-.49-.34-.18-.56-.18-.42.06-.57.18-.27.29-.35.5-.12.45-.12.72.04.51.12.73.19.38.35.51.35.19.57.19Z"/>
    <path class="cls-2" d="M130.64,117.69c-.44,0-.82-.09-1.13-.28s-.56-.45-.73-.78-.26-.73-.26-1.19.08-.85.25-1.18.41-.6.71-.79.67-.29,1.09-.29c.27,0,.52.04.76.13s.45.22.64.4.33.41.44.69.16.61.16.99v.32h-3.57v-.69h3.07l-.48.2c0-.24-.04-.46-.11-.65s-.19-.33-.34-.44-.34-.16-.56-.16-.41.05-.57.16-.28.25-.36.42-.12.37-.12.59v.48c0,.28.05.51.14.7s.23.33.39.43.37.14.59.14c.15,0,.28-.02.4-.06s.23-.11.31-.19.16-.19.2-.31l.93.19c-.07.23-.19.44-.36.62s-.38.31-.63.41-.54.15-.87.15Z"/>
    <path class="cls-2" d="M133.23,117.6v-.65l2.25-2.84v-.04h-2.18v-.85h3.43v.7l-2.15,2.78v.04h2.22v.85h-3.57Z"/>
  </g>
</svg>