<?xml version="1.0" encoding="UTF-8"?>
<svg id="Horizontal" xmlns="http://www.w3.org/2000/svg" viewBox="0 0 350 75">
  <defs>
    <style>
      .cls-1 {
        fill: none;
      }

      .cls-2 {
        fill: #36a9e1;
      }

      .cls-3 {
        fill: #6d6e70;
      }
    </style>
  </defs>
  <g>
    <g>
      <path class="cls-3" d="M166.29,24.59v3.37h2.97v-3.37h2.46v9.28h-2.46v-3.67h-2.97v3.67h-2.46v-9.28h2.46Z"/>
      <path class="cls-3" d="M179.1,33.1c-.61.65-1.47.97-2.58.97s-1.94-.31-2.54-.94c-.6-.63-.91-1.51-.91-2.65s.31-2.05.93-2.68c.62-.64,1.48-.96,2.58-.96s1.94.31,2.54.94.91,1.51.91,2.65-.31,2.03-.92,2.67ZM175.7,31.79c.2.27.48.4.84.4s.64-.13.84-.4.3-.71.3-1.34-.1-1.07-.3-1.34c-.2-.27-.48-.4-.84-.4s-.64.13-.84.4c-.2.27-.3.72-.3,1.34s.1,1.07.3,1.34Z"/>
      <path class="cls-3" d="M183.38,32.24c.19.1.43.15.72.15s.51-.04.64-.13c.13-.09.19-.22.19-.4,0-.14-.04-.25-.13-.34-.09-.09-.26-.15-.52-.19l-.78-.13c-.87-.15-1.51-.39-1.91-.73-.41-.34-.61-.81-.61-1.4,0-.73.26-1.28.79-1.66s1.26-.57,2.22-.57c.54,0,.99.06,1.37.17s.68.27.93.46c.24.2.43.42.56.67.13.25.22.51.27.78l-2.13.22c-.05-.23-.15-.41-.29-.53-.15-.12-.38-.18-.69-.18-.3,0-.51.05-.64.15s-.19.22-.19.37c0,.14.05.25.16.32.11.08.31.14.61.2l.77.14c.48.09.88.19,1.2.32.32.13.58.28.77.46.19.17.33.38.41.6.08.23.12.49.12.77,0,.76-.25,1.34-.75,1.72-.5.39-1.27.58-2.3.58-.41,0-.81-.04-1.19-.11s-.73-.2-1.03-.38c-.3-.18-.55-.43-.74-.73-.19-.31-.3-.7-.33-1.16h2.19c.05.27.17.45.36.55Z"/>
      <path class="cls-3" d="M190.42,27.8c.47-.65,1.12-.98,1.96-.98s1.51.31,1.98.92c.47.62.7,1.48.7,2.6,0,.59-.07,1.12-.2,1.58-.13.46-.32.85-.57,1.17s-.54.56-.89.72c-.34.16-.73.25-1.16.25-.75,0-1.34-.27-1.76-.81v3.13h-2.31v-9.36h2.25v.77ZM190.55,31.31c.05.21.11.37.2.49.1.15.23.25.38.31.15.06.3.08.45.08.36,0,.64-.14.84-.41s.3-.72.3-1.33-.1-1.05-.29-1.32c-.2-.27-.47-.41-.83-.41-.16,0-.32.03-.46.09s-.27.17-.38.34c-.18.26-.27.65-.27,1.18v.19c0,.31.02.57.07.78Z"/>
      <path class="cls-3" d="M198.6,26.29h-2.34v-1.7h2.34v1.7ZM198.58,33.87h-2.31v-6.83h2.31v6.83Z"/>
      <path class="cls-3" d="M199.46,28.88v-1.83h1.07v-1.79h2.31v1.79h1.46v1.83h-1.46v2.43c0,.31.07.52.21.63.14.11.32.16.56.16.2,0,.41-.03.64-.08l.29,1.72c-.52.16-1.05.25-1.59.25-.88,0-1.5-.21-1.87-.62-.37-.42-.56-1.07-.56-1.95v-2.54h-1.07Z"/>
      <path class="cls-3" d="M209.44,33.13c-.27.29-.57.52-.89.68-.32.16-.7.24-1.14.24-.3,0-.58-.04-.86-.12s-.51-.2-.72-.37-.38-.38-.5-.64c-.12-.26-.19-.57-.19-.93,0-.42.08-.76.25-1.05s.39-.51.68-.69c.29-.18.63-.31,1.02-.39.39-.08.81-.14,1.27-.16l1.01-.05v-.27c0-.34-.08-.57-.24-.7-.16-.13-.37-.2-.61-.2-.53,0-.83.23-.91.68l-2.08-.17c.12-.73.44-1.27.96-1.62.52-.36,1.23-.53,2.13-.53.56,0,1.03.07,1.41.2.38.13.68.32.91.57.23.24.4.54.5.88s.15.73.15,1.15v4.24h-2.16v-.74ZM208.62,31.02c-.49.03-.82.11-.99.25s-.26.32-.26.55.07.39.2.48c.13.1.32.14.56.14.36,0,.65-.1.89-.31.23-.2.35-.51.35-.92v-.23l-.74.04Z"/>
      <path class="cls-3" d="M215.25,33.87h-2.31v-9.28h2.31v9.28Z"/>
    </g>
    <g>
      <rect class="cls-1" x="162.99" y="42.57" width="126.84" height="9.7"/>
      <path class="cls-3" d="M163.85,42.57h3.65c1.54,0,2.71.39,3.5,1.16.79.77,1.19,1.9,1.19,3.38s-.42,2.7-1.25,3.52c-.84.82-2.03,1.23-3.58,1.23h-3.51v-9.28ZM167.4,49.75c.76,0,1.32-.22,1.68-.67.36-.45.53-1.08.53-1.89s-.17-1.44-.49-1.87-.86-.64-1.59-.64h-1.18v5.07h1.05Z"/>
      <path class="cls-3" d="M180.61,47.06c-.23.45-.57.81-1.04,1.09l1.9,3.71h-2.64l-1.52-3.2h-1.35v3.2h-2.38v-9.28h3.67c.72,0,1.32.08,1.79.25.48.16.86.38,1.14.66.28.27.48.59.6.94.12.35.18.72.18,1.09,0,.59-.11,1.11-.34,1.55ZM177.18,46.72c.5,0,.86-.1,1.06-.29.2-.19.31-.47.31-.84s-.11-.62-.33-.81-.59-.29-1.12-.29h-1.14v2.22h1.22Z"/>
      <path class="cls-3" d="M184.7,49.37v2.48h-2.26v-2.48h2.26Z"/>
      <path class="cls-3" d="M196,47.06c-.23.45-.57.81-1.04,1.09l1.9,3.71h-2.64l-1.52-3.2h-1.35v3.2h-2.38v-9.28h3.67c.72,0,1.32.08,1.79.25.48.16.86.38,1.14.66.28.27.48.59.6.94.12.35.18.72.18,1.09,0,.59-.11,1.11-.34,1.55ZM192.57,46.72c.5,0,.86-.1,1.06-.29.2-.19.31-.47.31-.84s-.11-.62-.33-.81-.59-.29-1.12-.29h-1.14v2.22h1.22Z"/>
      <path class="cls-3" d="M201.65,51.11c-.28.29-.58.52-.9.68-.33.16-.71.24-1.16.24-.3,0-.59-.04-.87-.12s-.52-.2-.73-.37c-.21-.17-.38-.38-.51-.64-.12-.26-.19-.57-.19-.93,0-.42.08-.76.25-1.05s.4-.51.7-.69c.29-.18.64-.31,1.04-.39.4-.08.83-.14,1.29-.16l1.03-.05v-.27c0-.34-.08-.57-.25-.7-.17-.13-.37-.2-.62-.2-.54,0-.84.23-.92.68l-2.12-.17c.12-.73.45-1.27.97-1.63.53-.35,1.25-.53,2.17-.53.57,0,1.05.07,1.44.2.39.13.7.32.93.57.23.24.4.54.51.88.1.34.16.73.16,1.15v4.24h-2.2v-.74ZM200.82,49c-.49.03-.83.11-1.01.25s-.27.32-.27.55.07.39.2.48c.13.1.32.14.57.14.36,0,.67-.1.9-.31.24-.2.36-.51.36-.92v-.23l-.75.04Z"/>
      <path class="cls-3" d="M209.36,51.05c-.27.36-.57.62-.92.78-.34.16-.72.23-1.12.23-.69,0-1.23-.21-1.61-.63s-.57-1.03-.57-1.84v-4.56h2.35v4.19c0,.36.07.6.2.72.13.13.31.19.55.19.29,0,.55-.1.75-.3.09-.1.16-.2.21-.33.06-.12.08-.29.08-.52v-3.95h2.35v6.83h-2.29v-.81ZM206.88,44.23l1.62-2.15h2.63l-2.09,2.15h-2.16Z"/>
      <path class="cls-3" d="M215.43,51.85h-2.35v-9.28h2.35v9.28Z"/>
      <path class="cls-3" d="M222.3,42.57v3.37h3.02v-3.37h2.5v9.28h-2.5v-3.67h-3.02v3.67h-2.5v-9.28h2.5Z"/>
      <path class="cls-3" d="M231.45,48.99c.04.49.15.85.33,1.06.18.21.46.32.84.32.59,0,.95-.24,1.08-.72h2.2c-.14.81-.49,1.41-1.04,1.81-.55.4-1.29.6-2.21.6-1.14,0-2.01-.3-2.59-.91-.58-.61-.87-1.47-.87-2.6,0-.6.08-1.13.25-1.59.17-.46.4-.85.7-1.17.3-.32.66-.56,1.09-.72s.91-.25,1.45-.25,1.01.08,1.42.24c.41.16.75.39,1.03.69.28.3.49.66.62,1.09s.21.9.21,1.42v.74h-4.5ZM231.79,46.79c-.19.21-.3.49-.34.86h2.33c-.02-.42-.12-.71-.29-.9s-.45-.27-.81-.27c-.4,0-.69.1-.88.31Z"/>
      <path class="cls-3" d="M239.43,45.03v.83c.24-.33.52-.57.83-.72.31-.15.67-.23,1.08-.23.25,0,.47.02.66.06l-.26,2.02c-.1-.03-.21-.05-.34-.06-.13-.01-.26-.02-.39-.02-.19,0-.38.02-.57.06s-.35.11-.5.21c-.16.12-.27.27-.34.45-.07.18-.11.42-.11.72v3.5h-2.35v-6.83h2.29Z"/>
      <path class="cls-3" d="M245.19,45.83c.28-.36.59-.62.93-.78.34-.16.72-.23,1.14-.23.7,0,1.25.21,1.63.62.39.41.58,1.03.58,1.85v4.56h-2.35v-4.19c0-.36-.07-.6-.2-.72-.13-.13-.32-.19-.57-.19-.31,0-.57.1-.78.3-.09.1-.17.2-.23.33-.06.12-.08.29-.08.52v3.95h-2.35v-6.83h2.29v.81Z"/>
      <path class="cls-3" d="M254.84,51.11c-.28.29-.58.52-.9.68-.33.16-.71.24-1.16.24-.3,0-.59-.04-.87-.12s-.52-.2-.73-.37c-.21-.17-.38-.38-.51-.64-.12-.26-.19-.57-.19-.93,0-.42.08-.76.25-1.05s.4-.51.7-.69c.29-.18.64-.31,1.04-.39.4-.08.83-.14,1.29-.16l1.03-.05v-.27c0-.34-.08-.57-.25-.7-.17-.13-.37-.2-.62-.2-.54,0-.84.23-.92.68l-2.12-.17c.12-.73.45-1.27.97-1.63.53-.35,1.25-.53,2.17-.53.57,0,1.05.07,1.44.2.39.13.7.32.93.57.23.24.4.54.51.88.1.34.16.73.16,1.15v4.24h-2.2v-.74ZM252.47,44.23l1.63-2.15h2.63l-2.09,2.15h-2.16ZM254,49c-.49.03-.83.11-1.01.25s-.27.32-.27.55.07.39.2.48c.13.1.32.14.57.14.36,0,.67-.1.9-.31.24-.2.36-.51.36-.92v-.23l-.75.04Z"/>
      <path class="cls-3" d="M260.69,45.83c.28-.36.59-.62.93-.78.34-.16.72-.23,1.14-.23.7,0,1.25.21,1.63.62.39.41.58,1.03.58,1.85v4.56h-2.35v-4.19c0-.36-.07-.6-.2-.72-.13-.13-.32-.19-.57-.19-.31,0-.57.1-.78.3-.09.1-.17.2-.23.33-.06.12-.08.29-.08.52v3.95h-2.35v-6.83h2.29v.81Z"/>
      <path class="cls-3" d="M270.85,51.08c-.49.65-1.15.98-1.99.98s-1.55-.31-2.02-.92c-.47-.62-.71-1.48-.71-2.6,0-.59.07-1.12.2-1.58.13-.46.33-.85.58-1.17.25-.32.55-.56.9-.72.35-.16.74-.25,1.18-.25.76,0,1.36.27,1.79.81v-3.06h2.35v9.28h-2.29v-.77ZM270.71,47.57c-.05-.21-.11-.37-.2-.49-.1-.15-.23-.25-.38-.31s-.31-.08-.46-.08c-.35,0-.63.13-.84.39-.21.26-.32.71-.32,1.35s.1,1.08.31,1.34.49.39.83.39c.17,0,.32-.03.47-.09.15-.06.28-.17.39-.34.18-.26.27-.65.27-1.18v-.19c0-.31-.02-.57-.07-.78Z"/>
      <path class="cls-3" d="M276.6,48.99c.04.49.15.85.33,1.06.18.21.46.32.84.32.59,0,.95-.24,1.08-.72h2.2c-.14.81-.49,1.41-1.04,1.81-.55.4-1.29.6-2.21.6-1.14,0-2.01-.3-2.59-.91-.58-.61-.87-1.47-.87-2.6,0-.6.08-1.13.25-1.59.17-.46.4-.85.7-1.17.3-.32.66-.56,1.09-.72s.91-.25,1.45-.25,1.01.08,1.42.24c.41.16.75.39,1.03.69.28.3.49.66.62,1.09s.21.9.21,1.42v.74h-4.5ZM276.94,46.79c-.19.21-.3.49-.34.86h2.33c-.02-.42-.12-.71-.29-.9s-.45-.27-.81-.27c-.4,0-.69.1-.88.31Z"/>
      <path class="cls-3" d="M288.04,50.06l-.2,1.79h-5.88v-1.5l3-3.54h-2.94v-1.79h5.85v1.5l-3,3.54h3.16Z"/>
    </g>
  </g>
  <rect class="cls-2" x="50.11" y="59.22" width="95.17" height="3.62" rx="1.81" ry="1.81"/>
  <polygon class="cls-3" points="56.27 12.17 56.27 57.87 64.85 57.87 64.85 37.63 84.56 37.63 84.56 57.87 93.14 57.87 93.14 12.17 84.69 12.17 84.69 29.86 65.12 29.86 65.12 12.17 56.27 12.17"/>
  <path class="cls-3" d="M96.49,12.17v7.1h24.66s6.97.27,6.97,5.36-.13,6.43-6.03,6.7h-7.64v8.07h4.16s5.76.64,7.64,7.48l3.5,10.99h8.96s-4.93-18.23-8.96-20.37c0,0,7.36-3.08,7.49-12.47,0,0-.19-7.63-7.58-11.31-2.11-1.05-4.44-1.56-6.79-1.56h-26.38Z"/>
  <polygon class="cls-3" points="97.69 22.2 106.79 22.2 102.24 19.99 97.69 22.2"/>
  <rect class="cls-3" x="95.53" y="23.1" width="13.77" height="2.01"/>
  <path class="cls-3" d="M95.53,25.92h13.77v14.38l-5.05,2.75c-.42.23-.68.67-.67,1.14l.09,12.5s-.08.7-1.06.75-.94-.76-.94-.76l-.04-12.56c0-.38-.21-.73-.55-.91l-5.54-2.93v-14.35Z"/>
</svg>