<?xml version="1.0" encoding="UTF-8"?>
<svg id="Capa_1" xmlns="http://www.w3.org/2000/svg" version="1.1" viewBox="0 0 16 16">
  <!-- Generator: Adobe Illustrator 29.5.1, SVG Export Plug-In . SVG Version: 2.1.0 Build 141)  -->
  <defs>
    <style>
      .st0 {
        fill: #4a5565;
      }
    </style>
  </defs>
  <path class="st0" d="M8.5,5.03v1.1l.95-.55.5.87-.95.55.95.55-.5.87-.95-.55v1.1h-1v-1.1l-.95.55-.5-.87.95-.55-.95-.55.5-.87.95.55v-1.1h1ZM13.25,9c-.14,0-.25.11-.25.25v.5c0,.14.11.25.25.25h.5c.14,0,.25-.11.25-.25v-.5c0-.14-.11-.25-.25-.25h-.5ZM13,11.25c0-.14.11-.25.25-.25h.5c.14,0,.25.11.25.25v.5c0,.14-.11.25-.25.25h-.5c-.14,0-.25-.11-.25-.25v-.5ZM13.25,13c-.14,0-.25.11-.25.25v.5c0,.14.11.25.25.25h.5c.14,0,.25-.11.25-.25v-.5c0-.14-.11-.25-.25-.25h-.5ZM2.25,9c-.14,0-.25.11-.25.25v.5c0,.14.11.25.25.25h.5c.14,0,.25-.11.25-.25v-.5c0-.14-.11-.25-.25-.25h-.5ZM2.25,11c-.14,0-.25.11-.25.25v.5c0,.14.11.25.25.25h.5c.14,0,.25-.11.25-.25v-.5c0-.14-.11-.25-.25-.25h-.5ZM2,13.25c0-.14.11-.25.25-.25h.5c.14,0,.25.11.25.25v.5c0,.14-.11.25-.25.25h-.5c-.14,0-.25-.11-.25-.25v-.5Z"/>
  <path class="st0" d="M5,1c0-.55.45-1,1-1h4c.55,0,1,.45,1,1v1c.55,0,1,.45,1,1v4h3c.55,0,1,.45,1,1v7c0,.55-.45,1-1,1H1c-.55,0-1-.45-1-1v-7c0-.55.45-1,1-1h3V3c0-.55.45-1,1-1v-1ZM7,15h2v-3h-2v3ZM10,15h1V3h-6v12h1v-3c0-.55.45-1,1-1h2c.55,0,1,.45,1,1v3ZM10,1h-4v1h4v-1ZM12,8v7h3v-7h-3ZM4,15v-7H1v7h3Z"/>
</svg>