<?xml version="1.0" encoding="UTF-8"?>
<svg id="Capa_1" xmlns="http://www.w3.org/2000/svg" version="1.1" viewBox="0 0 16 16">
  <!-- Generator: Adobe Illustrator 29.5.1, SVG Export Plug-In . SVG Version: 2.1.0 Build 141)  -->
  <defs>
    <style>
      .st0 {
        fill: #009fe3;
      }
    </style>
  </defs>
  <path class="st0" d="M8,0c-2.17,0-2.44,0-3.3.05-.85.04-1.43.17-1.94.37-.53.2-1.02.52-1.42.92-.41.4-.72.88-.92,1.42-.2.51-.33,1.09-.37,1.94-.04.86-.05,1.13-.05,3.3s0,2.44.05,3.3c.04.85.17,1.43.37,1.94.2.53.48.97.92,1.42.44.44.89.72,1.42.92.51.2,1.09.33,1.94.37.85.04,1.13.05,3.3.05s2.44-.01,3.3-.05c.85-.04,1.43-.17,1.94-.37.53-.2,1.02-.52,1.42-.92.44-.44.72-.89.92-1.42.2-.51.33-1.09.37-1.94.04-.85.05-1.12.05-3.3s-.01-2.44-.05-3.3c-.04-.85-.18-1.43-.37-1.94-.2-.53-.52-1.02-.92-1.42-.4-.41-.88-.72-1.42-.92-.51-.2-1.09-.33-1.94-.37-.85-.04-1.12-.05-3.3-.05h0ZM7.28,1.44h.72c2.14,0,2.39,0,3.23.05.78.03,1.2.17,1.49.27.37.14.64.32.92.6s.45.55.6.92c.11.28.24.7.27,1.49.04.84.05,1.1.05,3.23s0,2.39-.05,3.23c-.03.78-.17,1.2-.27,1.48-.13.35-.33.66-.6.92-.28.28-.55.45-.92.6-.28.11-.7.24-1.48.28-.84.04-1.1.05-3.23.05s-2.39,0-3.23-.05c-.78-.04-1.2-.17-1.49-.28-.35-.13-.66-.33-.92-.6-.27-.26-.47-.57-.6-.92-.11-.28-.24-.7-.27-1.48-.04-.84-.05-1.1-.05-3.23s0-2.39.05-3.23c.04-.78.17-1.2.28-1.49.14-.37.32-.64.6-.92s.55-.45.92-.6c.28-.11.7-.24,1.49-.28.74-.03,1.02-.04,2.52-.04h0ZM12.27,2.77c-.53,0-.96.43-.96.96s.43.96.96.96h0c.53,0,.96-.43.96-.96s-.43-.96-.96-.96M8,3.89c-2.27-.04-4.14,1.78-4.17,4.04-.04,2.27,1.78,4.14,4.04,4.17.04,0,.09,0,.13,0,2.27-.04,4.08-1.9,4.04-4.17-.03-2.22-1.83-4.01-4.04-4.04M8,5.33c1.47,0,2.67,1.19,2.67,2.67s-1.19,2.67-2.67,2.67h0c-1.47,0-2.67-1.19-2.67-2.67s1.19-2.67,2.67-2.67"/>
</svg>